<svg width="18" height="18" viewBox="0 0 18 18" fill="none" xmlns="http://www.w3.org/2000/svg">
<path d="M9 2.25L9.75 0.75L10.5 2.25L12 3L10.5 3.75L9.75 5.25L9 3.75L7.5 3L9 2.25Z" fill="#FA9C19"/>
<path d="M5 3.5L5.625 2.25L6.25 3.5L7.5 4.125L6.25 4.75L5.625 6L5 4.75L3.75 4.125L5 3.5Z" fill="#FA9C19"/>
<path fill-rule="evenodd" clip-rule="evenodd" d="M15.4066 3.22686L13.0062 6.75H15V16.5H3V6.75H11.6449L14.4769 2.59342L15.4066 3.22686ZM4.125 7.875V15.375H13.875V7.875H4.125Z" fill="#FA9C19"/>
<path fill-rule="evenodd" clip-rule="evenodd" d="M6.75 9.75H11.25V10.875H6.75V9.75Z" fill="#FA9C19"/>
</svg>
