<svg width="307" height="158" viewBox="0 0 307 158" fill="none" xmlns="http://www.w3.org/2000/svg">
<line x1="0.5" y1="136" x2="0.500007" y2="-1.85691e-08" stroke="#4A6A85" stroke-opacity="0.3" stroke-dasharray="1 6"/>
<line x1="51.5" y1="136" x2="51.5" y2="-1.85691e-08" stroke="#4A6A85" stroke-opacity="0.3" stroke-dasharray="1 6"/>
<line x1="102.5" y1="136" x2="102.5" y2="-1.85691e-08" stroke="#4A6A85" stroke-opacity="0.3" stroke-dasharray="1 6"/>
<line x1="153.5" y1="136" x2="153.5" y2="-1.85691e-08" stroke="#4A6A85" stroke-opacity="0.3" stroke-dasharray="1 6"/>
<path d="M22.06 155L19.79 149.51V155H18.78V147.82H20.13L22.54 153.65L24.94 147.82H26.3V155H25.28V149.5L23 155H22.06ZM30.9823 155V154.18C30.6523 154.77 30.0623 155.1 29.2823 155.1C28.1823 155.1 27.4623 154.47 27.4623 153.5C27.4623 152.46 28.2923 151.92 29.8723 151.92C30.1823 151.92 30.4323 151.93 30.8623 151.98V151.59C30.8623 150.83 30.4523 150.4 29.7523 150.4C29.0123 150.4 28.5623 150.84 28.5323 151.58H27.6123C27.6623 150.39 28.5123 149.6 29.7523 149.6C31.0623 149.6 31.8223 150.34 31.8223 151.6V155H30.9823ZM28.4223 153.47C28.4223 154.02 28.8323 154.38 29.4823 154.38C30.3323 154.38 30.8623 153.85 30.8623 153.04V152.61C30.4723 152.56 30.1923 152.55 29.9323 152.55C28.9223 152.55 28.4223 152.85 28.4223 153.47ZM34.1827 152.29V155H33.1727V149.7H34.1127V150.82C34.4827 150.09 35.2827 149.63 36.1527 149.63V150.68C35.0127 150.62 34.1827 151.12 34.1827 152.29Z" fill="#4A6A85"/>
<line x1="8" y1="70.5" x2="45" y2="70.5" stroke="#4A6A85" stroke-width="3"/>
<path d="M74.72 155L74.07 153.22H70.97L70.31 155H69.2L71.95 147.82H73.16L75.89 155H74.72ZM72.53 149.02L71.3 152.33H73.74L72.53 149.02ZM81.8596 152.35C81.8596 153.95 80.9396 155.1 79.5196 155.1C78.7996 155.1 78.1896 154.74 77.8096 154.1V156.93H76.7996V149.7H77.7396V150.67C78.1196 149.99 78.7696 149.6 79.5196 149.6C80.9296 149.6 81.8596 150.75 81.8596 152.35ZM80.8096 152.35C80.8096 151.16 80.1796 150.49 79.3096 150.49C78.4696 150.49 77.8096 151.16 77.8096 152.35C77.8096 153.52 78.4596 154.2 79.3096 154.2C80.1796 154.2 80.8096 153.54 80.8096 152.35ZM83.8936 152.29V155H82.8836V149.7H83.8236V150.82C84.1936 150.09 84.9936 149.63 85.8636 149.63V150.68C84.7236 150.62 83.8936 151.12 83.8936 152.29Z" fill="#4A6A85"/>
<line x1="59" y1="93.5" x2="96" y2="93.5" stroke="#4A6A85" stroke-width="3"/>
<path d="M123.06 155L120.79 149.51V155H119.78V147.82H121.13L123.54 153.65L125.94 147.82H127.3V155H126.28V149.5L124 155H123.06ZM131.982 155V154.18C131.652 154.77 131.062 155.1 130.282 155.1C129.182 155.1 128.462 154.47 128.462 153.5C128.462 152.46 129.292 151.92 130.872 151.92C131.182 151.92 131.432 151.93 131.862 151.98V151.59C131.862 150.83 131.452 150.4 130.752 150.4C130.012 150.4 129.562 150.84 129.532 151.58H128.612C128.662 150.39 129.512 149.6 130.752 149.6C132.062 149.6 132.822 150.34 132.822 151.6V155H131.982ZM129.422 153.47C129.422 154.02 129.832 154.38 130.482 154.38C131.332 154.38 131.862 153.85 131.862 153.04V152.61C131.472 152.56 131.192 152.55 130.932 152.55C129.922 152.55 129.422 152.85 129.422 153.47ZM138.407 149.7L135.757 156.93H134.657L135.417 154.93L133.327 149.7H134.417L135.957 153.74L137.387 149.7H138.407Z" fill="#4A6A85"/>
<line x1="110" y1="79.5" x2="147" y2="79.5" stroke="#4A6A85" stroke-width="3"/>
<line x1="204.5" y1="136" x2="204.5" y2="-1.85691e-08" stroke="#4A6A85" stroke-opacity="0.3" stroke-dasharray="1 6"/>
<line x1="255.5" y1="136" x2="255.5" y2="-1.85691e-08" stroke="#4A6A85" stroke-opacity="0.3" stroke-dasharray="1 6"/>
<line x1="306.5" y1="136" x2="306.5" y2="-1.85691e-08" stroke="#4A6A85" stroke-opacity="0.3" stroke-dasharray="1 6"/>
<path d="M278.72 155L278.07 153.22H274.97L274.31 155H273.2L275.95 147.82H277.16L279.89 155H278.72ZM276.53 149.02L275.3 152.33H277.74L276.53 149.02ZM283.914 152.82V149.7H284.924V155H283.984V154.16C283.704 154.71 283.084 155.1 282.364 155.1C281.294 155.1 280.554 154.47 280.554 153.11V149.7H281.564V152.91C281.564 153.83 282.024 154.21 282.684 154.21C283.364 154.21 283.914 153.65 283.914 152.82ZM288.447 157.04C287.057 157.04 286.157 156.3 286.097 155.1H287.077C287.137 155.84 287.617 156.24 288.437 156.24C289.347 156.24 289.827 155.75 289.827 154.84V153.88C289.527 154.52 288.927 154.89 288.207 154.89C286.887 154.89 285.947 153.8 285.947 152.24C285.947 150.66 286.847 149.6 288.177 149.6C288.937 149.6 289.537 149.97 289.897 150.64V149.7H290.837V154.82C290.837 156.21 289.947 157.04 288.447 157.04ZM286.967 152.24C286.967 153.34 287.507 154.01 288.387 154.01C289.247 154.01 289.827 153.32 289.827 152.27C289.827 151.17 289.257 150.47 288.387 150.47C287.517 150.47 286.967 151.15 286.967 152.24Z" fill="#4A6A85"/>
<line x1="263" y1="134.5" x2="300" y2="134.5" stroke="#4A6A85" stroke-width="3"/>
<path d="M226.25 147.82V152.53C226.25 154.15 225.3 155.15 223.7 155.15C222.13 155.15 221.19 154.16 221.15 152.7H222.26C222.3 153.61 222.78 154.16 223.7 154.16C224.63 154.16 225.14 153.62 225.14 152.58V147.82H226.25ZM230.987 152.82V149.7H231.997V155H231.057V154.16C230.777 154.71 230.157 155.1 229.437 155.1C228.367 155.1 227.627 154.47 227.627 153.11V149.7H228.637V152.91C228.637 153.83 229.097 154.21 229.757 154.21C230.437 154.21 230.987 153.65 230.987 152.82ZM234.419 155H233.399V147.82H234.419V155Z" fill="#4A6A85"/>
<line x1="212" y1="134.5" x2="249" y2="134.5" stroke="#4A6A85" stroke-width="3"/>
<path d="M176.25 147.82V152.53C176.25 154.15 175.3 155.15 173.7 155.15C172.13 155.15 171.19 154.16 171.15 152.7H172.26C172.3 153.61 172.78 154.16 173.7 154.16C174.63 154.16 175.14 153.62 175.14 152.58V147.82H176.25ZM180.987 152.82V149.7H181.997V155H181.057V154.16C180.777 154.71 180.157 155.1 179.437 155.1C178.367 155.1 177.627 154.47 177.627 153.11V149.7H178.637V152.91C178.637 153.83 179.097 154.21 179.757 154.21C180.437 154.21 180.987 153.65 180.987 152.82ZM184.409 152.01V155H183.399V149.7H184.339V150.58C184.699 149.99 185.299 149.6 186.029 149.6C187.119 149.6 187.839 150.3 187.839 151.57V155H186.829V151.91C186.829 151 186.429 150.49 185.679 150.49C184.989 150.49 184.409 151.07 184.409 152.01Z" fill="#FE9400"/>
<rect x="161" y="20" width="37" height="116" fill="url(#paint0_linear_1566_8803)"/>
<line x1="161" y1="19.9872" x2="198" y2="19.9872" stroke="#FE9400" stroke-width="3"/>
<defs>
<linearGradient id="paint0_linear_1566_8803" x1="179.5" y1="20" x2="179.5" y2="136" gradientUnits="userSpaceOnUse">
<stop stop-color="#FA9C19" stop-opacity="0.5"/>
<stop offset="1" stop-color="white" stop-opacity="0"/>
</linearGradient>
</defs>
</svg>
