<svg width="18" height="18" viewBox="0 0 18 18" fill="none" xmlns="http://www.w3.org/2000/svg">
<path d="M5.0625 15.1591H6.67216C6.67216 15.1591 8.50961 15.8695 9.74527 15.9284C12.4698 16.0583 14.6341 14.7892 16.387 12.8589C16.7874 12.4181 16.7806 11.7526 16.4089 11.2873C15.9297 10.6875 15.029 10.639 14.4281 11.1165C13.7661 11.6426 12.8874 12.2343 12.0501 12.4667C10.8936 12.7877 9.74527 12.8514 9.74527 12.8514C15.8915 12.4667 13.5135 8.25 5.0625 10.5M10.5415 2.91707C10.2012 1.98104 9.30365 1.3125 8.25 1.3125C6.90381 1.3125 5.8125 2.40381 5.8125 3.75C5.8125 5.09619 6.90381 6.1875 8.25 6.1875C8.49642 6.1875 8.73431 6.15093 8.95852 6.08293M10.5415 2.91707C9.54084 3.22057 8.8125 4.15023 8.8125 5.25C8.8125 5.54254 8.86403 5.82304 8.95852 6.08293M10.5415 2.91707C10.7657 2.84907 11.0036 2.8125 11.25 2.8125C12.5962 2.8125 13.6875 3.90381 13.6875 5.25C13.6875 6.59619 12.5962 7.6875 11.25 7.6875C10.1963 7.6875 9.29884 7.01896 8.95852 6.08293M2.0625 9.5625H5.0625V15.9375H2.0625V9.5625Z" stroke="#FA9C19" stroke-width="1.125"/>
</svg>
