<svg width="18" height="18" viewBox="0 0 18 18" fill="none" xmlns="http://www.w3.org/2000/svg">
<path d="M3.375 15.1875L2.81497 15.1349L2.75714 15.75H3.375V15.1875ZM11.8125 4.875H11.25C11.25 6.11764 10.2426 7.125 9 7.125V7.6875V8.25C10.864 8.25 12.375 6.73896 12.375 4.875H11.8125ZM9 7.6875V7.125C7.75736 7.125 6.75 6.11764 6.75 4.875H6.1875H5.625C5.625 6.73896 7.13604 8.25 9 8.25V7.6875ZM6.1875 4.875H6.75C6.75 3.63236 7.75736 2.625 9 2.625V2.0625V1.5C7.13604 1.5 5.625 3.01104 5.625 4.875H6.1875ZM9 2.0625V2.625C10.2426 2.625 11.25 3.63236 11.25 4.875H11.8125H12.375C12.375 3.01104 10.864 1.5 9 1.5V2.0625ZM3.375 15.1875L3.93503 15.2401C4.18737 12.5559 6.17661 10.5 9 10.5V9.9375V9.375C5.53808 9.375 3.11604 11.9323 2.81497 15.1349L3.375 15.1875ZM9 9.9375V10.5C9.48164 10.5 9.93567 10.5594 10.3587 10.6694L10.5003 10.125L10.6419 9.58061C10.1239 9.44591 9.57462 9.375 9 9.375V9.9375ZM3.375 15.1875V15.75H9.375V15.1875V14.625H3.375V15.1875Z" fill="#4CA7F8"/>
<path fill-rule="evenodd" clip-rule="evenodd" d="M11.9331 15.6C12.2652 15.8629 12.5943 16.0706 12.8387 16.212C13.0543 16.3368 13.2765 16.4453 13.5015 16.5515C13.7265 16.4452 13.9487 16.3368 14.1642 16.212C14.4086 16.0706 14.7377 15.8629 15.0699 15.6C15.6934 15.1064 16.5025 14.2813 16.5025 13.22C16.5025 12.5577 16.2931 12.0066 15.927 11.6161C15.5636 11.2284 15.0748 11.0319 14.5852 11.0319C14.1315 11.0319 13.7684 11.1683 13.52 11.3038L13.5015 11.314L13.483 11.3038C13.2346 11.1683 12.8714 11.0319 12.4177 11.0319C11.9281 11.0319 11.4394 11.2284 11.076 11.6161C10.7099 12.0066 10.5005 12.5577 10.5005 13.22C10.5005 14.2813 11.3096 15.1064 11.9331 15.6ZM11.8967 12.3855C11.7548 12.5369 11.6255 12.7986 11.6255 13.22C11.6255 13.7166 12.0356 14.2463 12.6314 14.7179C12.9088 14.9376 13.1894 15.1152 13.4022 15.2383C13.4374 15.2587 13.4706 15.2775 13.5015 15.2947C13.5323 15.2775 13.5655 15.2587 13.6007 15.2383C13.8135 15.1152 14.0941 14.9376 14.3716 14.7179C14.9673 14.2463 15.3775 13.7166 15.3775 13.22C15.3775 12.7986 15.2482 12.5369 15.1062 12.3855C14.9617 12.2313 14.773 12.1569 14.5852 12.1569C14.3616 12.1569 14.1829 12.2236 14.0587 12.2914C13.839 12.4112 13.6759 12.5539 13.5015 12.7284C13.3257 12.5526 13.1658 12.4123 12.9442 12.2914C12.8201 12.2236 12.6414 12.1569 12.4177 12.1569C12.2299 12.1569 12.0413 12.2313 11.8967 12.3855Z" fill="#FA9C19"/>
</svg>
