<svg width="296" height="476" viewBox="0 0 296 476" fill="none" xmlns="http://www.w3.org/2000/svg">
<g opacity="0.2">
<path d="M255.178 0.532227C395.851 0.532227 509.823 106.764 509.823 237.729C509.823 368.695 395.851 474.927 255.178 474.927C114.505 474.927 0.532227 368.695 0.532227 237.729C0.53243 106.764 114.505 0.532311 255.178 0.532227Z" stroke="white" stroke-width="1.0649"/>
<path d="M255.178 32.6729C376.797 32.6731 475.323 124.515 475.323 237.73C475.323 350.944 376.797 442.786 255.178 442.786C133.558 442.786 35.0312 350.944 35.0312 237.73C35.0315 124.515 133.559 32.6729 255.178 32.6729Z" stroke="white" stroke-width="1.0649"/>
<path d="M255.177 69.2466C355.115 69.2466 436.065 144.714 436.065 237.73C436.065 330.746 355.115 406.212 255.177 406.212C155.24 406.212 74.2897 330.745 74.2896 237.73C74.2896 144.714 155.24 69.2467 255.177 69.2466Z" stroke="white" stroke-width="1.0649"/>
<path d="M255.178 105.821C333.434 105.821 396.808 164.913 396.808 237.73C396.808 310.546 333.434 369.639 255.178 369.639C176.922 369.639 113.548 310.546 113.548 237.73C113.548 164.913 176.922 105.821 255.178 105.821Z" stroke="white" stroke-width="1.0649"/>
<path d="M255.178 141.286C312.409 141.286 358.739 184.5 358.739 237.729C358.739 290.959 312.41 334.174 255.178 334.174C197.947 334.174 151.617 290.959 151.617 237.729C151.617 184.5 197.947 141.286 255.178 141.286Z" stroke="white" stroke-width="1.0649"/>
<path d="M255.179 173.427C293.356 173.427 324.24 202.251 324.24 237.729C324.24 273.208 293.356 302.033 255.179 302.033C217.001 302.033 186.117 273.208 186.117 237.729C186.117 202.251 217.001 173.427 255.179 173.427Z" stroke="white" stroke-width="1.0649"/>
<path d="M255.179 199.142C278.112 199.142 296.638 216.453 296.638 237.73C296.638 259.006 278.112 276.318 255.179 276.318C232.246 276.318 213.72 259.006 213.72 237.73C213.72 216.453 232.246 199.142 255.179 199.142Z" stroke="white" stroke-width="1.0649"/>
</g>
</svg>
