<svg width="18" height="18" viewBox="0 0 18 18" fill="none" xmlns="http://www.w3.org/2000/svg">
<path fill-rule="evenodd" clip-rule="evenodd" d="M1.5 3H16.5V6.75H15.375V4.125H2.625V13.875H8.25V15H1.5V3ZM9.75 12.5625V11.4375C10.9834 11.4375 11.7431 11.1645 12.2038 10.7038C12.6645 10.2431 12.9375 9.48342 12.9375 8.25H14.0625C14.0625 9.48342 14.3355 10.2431 14.7962 10.7038C15.2569 11.1645 16.0166 11.4375 17.25 11.4375V12.5625C16.0166 12.5625 15.2569 12.8355 14.7962 13.2962C14.3355 13.7569 14.0625 14.5166 14.0625 15.75H12.9375C12.9375 14.5166 12.6645 13.7569 12.2038 13.2962C11.7431 12.8355 10.9834 12.5625 9.75 12.5625ZM13.5 13.1595C13.638 12.9176 13.8039 12.6974 14.0007 12.5007C14.1974 12.3039 14.4176 12.138 14.6595 12C14.4176 11.862 14.1974 11.6961 14.0007 11.4993C13.8039 11.3026 13.638 11.0824 13.5 10.8405C13.362 11.0824 13.1961 11.3026 12.9993 11.4993C12.8026 11.6961 12.5824 11.862 12.3405 12C12.5824 12.138 12.8026 12.3039 12.9993 12.5007C13.1961 12.6974 13.362 12.9176 13.5 13.1595Z" fill="#FA9C19"/>
<path d="M5.25 6C5.25 6.41421 4.91421 6.75 4.5 6.75C4.08579 6.75 3.75 6.41421 3.75 6C3.75 5.58579 4.08579 5.25 4.5 5.25C4.91421 5.25 5.25 5.58579 5.25 6Z" fill="#FA9C19"/>
<path d="M7.5 6C7.5 6.41421 7.16421 6.75 6.75 6.75C6.33579 6.75 6 6.41421 6 6C6 5.58579 6.33579 5.25 6.75 5.25C7.16421 5.25 7.5 5.58579 7.5 6Z" fill="#FA9C19"/>
<path d="M9 6.75C9.41421 6.75 9.75 6.41421 9.75 6C9.75 5.58579 9.41421 5.25 9 5.25C8.58579 5.25 8.25 5.58579 8.25 6C8.25 6.41421 8.58579 6.75 9 6.75Z" fill="#FA9C19"/>
</svg>
