<svg width="67" height="65" viewBox="0 0 67 65" fill="none" xmlns="http://www.w3.org/2000/svg">
<path d="M49.39 24.9925L49.2114 25.8291C49.1086 25.725 49.0057 25.621 48.8889 25.4973C48.3469 24.9377 47.7477 24.4189 47.1574 23.9528C47.8651 19.4292 45.0817 14.9989 40.7476 13.949C37.1154 13.0788 33.5083 14.8211 31.7329 18.007L29.3063 17.4601C31.4263 12.9056 36.3313 10.3273 41.2543 11.5192C47.011 12.915 50.6656 18.9709 49.39 24.9925Z" fill="white" fill-opacity="0.2"/>
<path d="M53.9558 25.9656L52.8436 31.2502C52.2366 30.1163 51.7273 29.1196 51.062 28.1454L51.6333 25.4036C53.2167 17.9214 48.7596 10.4571 41.7261 8.75917C35.4464 7.23344 29.1713 10.7879 26.7803 16.8949L24.4387 16.3465L24.4057 16.3405C27.1084 8.85877 34.6674 4.44875 42.2568 6.28267C50.581 8.30239 55.8458 17.1418 53.9558 25.9656Z" fill="white" fill-opacity="0.2"/>
<path d="M24.7936 41.2444L23.9521 40.8686C24.239 40.9894 24.5258 41.1101 24.7936 41.2444Z" fill="white" fill-opacity="0.2"/>
<path d="M44.8884 22.3771C43.9123 21.7721 42.9819 21.3118 42.1683 20.9753C41.7111 19.971 40.8174 19.1596 39.7057 18.8877C38.7589 18.646 37.8123 18.8475 37.0422 19.337C36.0015 19.0441 35.0357 18.8159 34.2679 18.6241C35.6275 16.8279 37.9228 15.902 40.2123 16.4579C42.9257 17.1256 44.7845 19.6138 44.8884 22.3771Z" fill="white" fill-opacity="0.2"/>
<path d="M23.9521 40.8686L24.7936 41.2444C24.5258 41.1101 24.239 40.9894 23.9521 40.8686Z" fill="white" fill-opacity="0.2"/>
<path d="M48.5065 29.1093L48.5345 29.1485C48.5155 29.1621 48.5104 29.1953 48.4914 29.2088C47.6872 30.2546 46.6673 31.1585 45.4886 31.88C45.2653 32.0096 45.0421 32.1391 44.8188 32.2686C43.361 33.0412 41.7406 33.5454 40.0808 33.7526C39.7687 33.7976 39.4426 33.8231 39.1355 33.835C38.7051 33.4323 38.2608 33.01 37.7924 32.6344C37.2351 32.1743 36.6779 31.7142 36.0825 31.2813C37.0115 31.4174 37.9366 31.4677 38.8109 31.4063C40.0254 31.3391 41.1851 31.0744 42.2522 30.6392C43.9689 29.9482 45.4253 28.8515 46.4552 27.438C46.5605 27.3039 46.6518 27.1502 46.7571 27.0161C47.369 27.6736 47.9758 28.3644 48.5065 29.1093Z" fill="white" fill-opacity="0.2"/>
<path d="M44.6309 25.3981C44.5053 25.6649 44.3519 25.8924 44.1984 26.12C43.3309 27.3587 42.0178 28.2942 40.4825 28.7969C39.0373 29.265 37.3648 29.3335 35.6971 28.9256L32.0179 28.0298L28.9936 27.2881L25.0365 26.3243C24.8575 26.2745 24.6925 26.2442 24.4945 26.208C23.7546 26.0553 23.0326 26.0082 22.3004 26.0275C18.2192 26.0977 14.7418 28.5456 13.9527 32.2701C12.99 36.7981 16.3991 41.4624 21.534 42.7102C25.3121 43.6241 28.01 46.7264 28.1699 50.0112C28.1878 50.56 28.1538 51.1162 28.0398 51.6407L25.3734 50.9987C25.4975 50.4078 25.4985 49.8456 25.3816 49.2787C25.0001 47.3339 23.318 45.5768 21.0425 45.0405C14.4189 43.4347 10.0461 37.4177 11.2913 31.595C12.4427 26.1641 18.0733 22.8325 24.1801 23.7129C24.6281 23.778 25.0571 23.8566 25.514 23.9744L28.2604 24.6481L31.1057 25.34L33.6732 25.9639L36.1607 26.5561C38.8271 27.1981 41.418 26.0025 42.2712 23.8578L42.2851 23.8774C43.0366 24.2878 43.7309 24.7389 44.4011 25.2367C44.509 25.3076 44.5699 25.3529 44.6309 25.3981Z" fill="white" fill-opacity="0.2"/>
<path d="M50.1771 31.495C50.214 31.587 50.2698 31.6654 50.3067 31.7574C50.6953 32.5445 50.9938 33.3662 51.2403 34.1954C50.7113 34.661 50.1354 35.1009 49.5125 35.5151C49.0418 35.8209 48.5901 36.1131 48.0585 36.3736C47.8022 36.4971 47.5599 36.6402 47.2896 36.744C46.758 37.0046 46.1985 37.2259 45.644 37.414C46.6344 38.925 47.4636 40.4917 48.1229 42.0613C48.6576 43.3354 49.0883 44.6245 49.3959 45.9422C48.763 46.8659 48.0083 47.6992 47.1837 48.4344C47.0158 47.3128 46.7818 46.179 46.4388 45.0935C46.1834 44.2115 45.862 43.3174 45.4695 42.4444C44.8421 40.9999 44.0585 39.578 43.1469 38.2178L42.5742 37.414L41.5356 35.9964L42.7906 35.6639L43.1459 35.5586C43.7283 35.4096 44.2828 35.2215 44.8423 35.0002C45.4209 34.7653 45.9665 34.5244 46.5031 34.2307C46.8546 34.0394 47.187 33.8617 47.5105 33.6312C48.5318 33.0514 49.4084 32.3087 50.1771 31.495Z" fill="white" fill-opacity="0.2"/>
<path d="M39.7308 22.8299C39.3785 24.0267 38.0209 24.6983 36.6122 24.372L34.7986 23.9203L32.4101 23.3463L29.9417 22.7405L27.4072 22.1227L25.9515 21.7707C17.8723 19.8129 10.0606 23.9892 8.57094 31.0795C7.06229 38.1835 12.4178 45.5396 20.4971 47.4974C21.1519 47.6515 21.6914 48.006 22.0837 48.4358C22.5737 49.0029 22.8164 49.7462 22.672 50.4697L20.0056 49.8277C15.4926 48.728 11.7023 46.2266 9.16181 42.9828L9.14784 42.9632C6.28991 39.3544 4.99506 34.8388 5.92354 30.4239C7.52211 22.8422 15.2168 18.0991 23.7373 18.9446C24.5203 19.0369 25.3173 19.1489 26.1041 19.3272C26.2361 19.3514 26.3681 19.3756 26.4811 19.4133L28.5256 19.9073L30.8481 20.4692L33.2036 21.0373L35.5261 21.5992L37.2268 22.0131C38.0555 22.2502 38.8982 22.5069 39.7308 22.8299Z" fill="white" fill-opacity="0.2"/>
<path d="M40.3554 38.8468C40.7325 39.3761 41.0766 39.8994 41.4207 40.4227C41.8804 41.1887 42.302 41.9818 42.6906 42.7689C43.8362 45.2629 44.4895 47.8711 44.5997 50.4821C43.7445 50.9731 42.8335 51.3857 41.8807 51.7394C41.9182 50.3827 41.7997 49.0486 41.539 47.7565C40.9414 44.7835 39.5914 41.9624 37.6336 39.456C37.1067 38.7969 36.5608 38.1514 35.9578 37.5466C35.3548 36.9418 34.7467 36.3702 34.0676 35.8196C31.5808 33.7788 28.5841 32.1899 25.2691 31.2415C24.9112 31.1418 24.5533 31.0422 24.2093 30.9621C23.3425 30.7521 22.5012 30.8195 21.7526 31.0573C20.5916 31.4411 19.6896 32.3497 19.4274 33.5118C18.9967 35.4441 20.4543 37.4498 22.6638 37.974C23.4837 38.1584 24.2744 38.4226 25.041 38.7335C26.3153 39.2738 27.5173 39.9543 28.576 40.796C29.349 41.3979 30.046 42.054 30.6617 42.7975C30.9093 43.0644 31.1327 43.3781 31.3422 43.6722C31.6355 44.0838 31.9098 44.5091 32.1511 44.9283C32.5638 45.6687 32.9054 46.4301 33.157 47.2262C33.2307 47.4101 33.2714 47.588 33.312 47.7659C33.6348 48.9841 33.7635 50.252 33.6422 51.491C33.6144 51.895 33.5676 52.3126 33.4738 52.7045C32.6058 52.6136 31.7289 52.4699 30.862 52.2599L30.7631 52.2418C30.872 51.7504 30.9289 51.2666 30.9338 50.7902C31.0042 48.9964 30.4984 47.1992 29.5511 45.6279C29.0775 44.8423 28.4808 44.0852 27.8029 43.4156C26.9333 42.5574 25.8924 41.8212 24.7412 41.2523C24.4734 41.118 24.1865 40.9973 23.8997 40.8765C23.326 40.635 22.7422 40.4599 22.1203 40.3118C18.4411 39.416 16.0148 36.0908 16.728 32.8637C17.4222 29.6501 20.9886 27.7299 24.6538 28.6061C24.7998 28.6499 24.9648 28.6802 25.1107 28.7239C26.4814 29.0774 27.8369 29.5303 29.1112 30.0706C31.6458 31.1317 33.9877 32.5665 36.0479 34.2906C36.6801 34.8155 37.2882 35.3871 37.8772 35.9723C38.7938 36.8562 39.6152 37.8078 40.3554 38.8468Z" fill="white" fill-opacity="0.2"/>
<path d="M51.8206 37.0626C51.9302 38.344 51.8648 39.6615 51.5823 40.9562C51.4683 41.4808 51.3352 42.0189 51.1742 42.5178C50.6826 41.1834 50.087 39.8641 49.3872 38.5598C49.4963 38.5116 49.5725 38.4574 49.6816 38.4092C49.9759 38.2586 50.2753 38.0748 50.5557 37.9046C50.8742 37.7073 51.2116 37.4964 51.5161 37.2795L51.8206 37.0626Z" fill="white" fill-opacity="0.2"/>
<path d="M35.9193 41.2388C36.2825 41.7485 36.6266 42.2718 36.9377 42.789C38.6456 45.7098 39.4159 48.885 39.1899 52.0309C39.1836 52.1832 39.1634 52.3158 39.1571 52.4681C38.2486 52.6425 37.3171 52.7445 36.3629 52.7742C36.4084 52.4757 36.4489 52.2104 36.4615 51.9059C36.5638 50.6804 36.4961 49.4578 36.2583 48.2382C36.1096 47.5462 35.9418 46.8677 35.689 46.1907C35.3994 45.4218 35.0577 44.6603 34.645 43.92C34.2463 43.1992 33.7765 42.4995 33.2356 41.8208C32.6948 41.1422 32.0828 40.4846 31.4278 39.8874C30.6979 39.2252 29.8969 38.5841 29.0477 38.0365C27.3354 36.9216 25.3795 36.0689 23.2359 35.5568C22.5011 35.371 22.0072 34.718 22.1415 34.0608C22.2897 33.4232 22.9926 33.0407 23.7135 33.2069C26.6908 33.9229 29.459 35.2313 31.7833 37.0037C32.5144 37.5468 33.1885 38.1305 33.8195 38.7746C34.4225 39.3794 34.9874 40.0113 35.5092 40.7035C35.6629 40.9191 35.7936 41.0624 35.9193 41.2388Z" fill="white" fill-opacity="0.2"/>
</svg>
