<svg width="12" height="15" viewBox="0 0 12 15" fill="none" xmlns="http://www.w3.org/2000/svg">
<path d="M7.00184 1.00184L7.39959 0.604092L7.39959 0.604092L7.00184 1.00184ZM10.9982 4.99816L11.3959 4.60041L11.3959 4.60041L10.9982 4.99816ZM3.5625 7.875C3.25184 7.875 3 8.12684 3 8.4375C3 8.74816 3.25184 9 3.5625 9V8.4375V7.875ZM6.1875 9C6.49816 9 6.75 8.74816 6.75 8.4375C6.75 8.12684 6.49816 7.875 6.1875 7.875V8.4375V9ZM3.5625 10.875C3.25184 10.875 3 11.1268 3 11.4375C3 11.7482 3.25184 12 3.5625 12V11.4375V10.875ZM8.4375 12C8.74816 12 9 11.7482 9 11.4375C9 11.1268 8.74816 10.875 8.4375 10.875V11.4375V12ZM2.0625 0.5625V1.125H5.94118V0.5625V0H2.0625V0.5625ZM11.4375 6.05882H10.875V12.9375H11.4375H12V6.05882H11.4375ZM7.00184 1.00184L6.60409 1.39959L10.6004 5.39591L10.9982 4.99816L11.3959 4.60041L7.39959 0.604092L7.00184 1.00184ZM0.5625 12.9375H1.125V2.0625H0.5625H0V12.9375H0.5625ZM9.9375 14.4375V13.875H2.0625V14.4375V15H9.9375V14.4375ZM0.5625 12.9375H0C0 14.0766 0.923413 15 2.0625 15V14.4375V13.875C1.54473 13.875 1.125 13.4553 1.125 12.9375H0.5625ZM11.4375 6.05882H12C12 5.51181 11.7827 4.98721 11.3959 4.60041L10.9982 4.99816L10.6004 5.39591C10.7762 5.57172 10.875 5.81018 10.875 6.05882H11.4375ZM5.94118 0.5625V1.125C6.18982 1.125 6.42828 1.22377 6.60409 1.39959L7.00184 1.00184L7.39959 0.604092C7.01279 0.217299 6.48819 0 5.94118 0V0.5625ZM11.4375 12.9375H10.875C10.875 13.4553 10.4553 13.875 9.9375 13.875V14.4375V15C11.0766 15 12 14.0766 12 12.9375H11.4375ZM2.0625 0.5625V0C0.923413 0 0 0.923413 0 2.0625H0.5625H1.125C1.125 1.54473 1.54473 1.125 2.0625 1.125V0.5625ZM6.5625 0.9375H6V3.9375H6.5625H7.125V0.9375H6.5625ZM8.0625 5.4375V6H11.0625V5.4375V4.875H8.0625V5.4375ZM6.5625 3.9375H6C6 5.07659 6.92341 6 8.0625 6V5.4375V4.875C7.54473 4.875 7.125 4.45527 7.125 3.9375H6.5625ZM3.5625 8.4375V9H6.1875V8.4375V7.875H3.5625V8.4375ZM3.5625 11.4375V12H8.4375V11.4375V10.875H3.5625V11.4375Z" fill="#4CA7F8"/>
</svg>
