<svg width="15" height="15" viewBox="0 0 15 15" fill="none" xmlns="http://www.w3.org/2000/svg">
<path d="M8.95833 3.33333H0.625M8.95833 3.33333C8.95833 1.83698 10.1703 0.625 11.6667 0.625C13.163 0.625 14.375 1.83698 14.375 3.33333C14.375 4.82969 13.163 6.04167 11.6667 6.04167C10.1703 6.04167 8.95833 4.82969 8.95833 3.33333ZM14.375 11.6667H7.70833M7.70833 11.6667C7.70833 13.163 6.49635 14.375 5 14.375C3.50365 14.375 2.29167 13.163 2.29167 11.6667M7.70833 11.6667C7.70833 10.1703 6.49635 8.95833 5 8.95833C3.50365 8.95833 2.29167 10.1703 2.29167 11.6667M2.29167 11.6667H0.625" stroke="#FA9C19" stroke-width="1.25" stroke-linecap="round" stroke-linejoin="round"/>
</svg>
