<svg width="15" height="15" viewBox="0 0 15 15" fill="none" xmlns="http://www.w3.org/2000/svg">
<path d="M2.8125 14.4375L2.25117 14.4737L2.28512 15H2.8125V14.4375ZM12.1875 14.4375V15H12.7149L12.7488 14.4737L12.1875 14.4375ZM0.5625 2.25H0V3.375H0.5625V2.8125V2.25ZM14.4375 3.375H15V2.25H14.4375V2.8125V3.375ZM6.375 6.5625V6H5.25V6.5625H5.8125H6.375ZM5.25 10.6875V11.25H6.375V10.6875H5.8125H5.25ZM9.75 6.5625V6H8.625V6.5625H9.1875H9.75ZM8.625 10.6875V11.25H9.75V10.6875H9.1875H8.625ZM2.0625 2.8125L1.50117 2.84872L2.25117 14.4737L2.8125 14.4375L3.37383 14.4013L2.62383 2.77628L2.0625 2.8125ZM2.8125 14.4375V15H12.1875V14.4375V13.875H2.8125V14.4375ZM12.1875 14.4375L12.7488 14.4737L13.4988 2.84872L12.9375 2.8125L12.3762 2.77628L11.6262 14.4013L12.1875 14.4375ZM12.9375 2.8125V2.25H2.0625V2.8125V3.375H12.9375V2.8125ZM0.5625 2.8125V3.375H2.0625V2.8125V2.25H0.5625V2.8125ZM12.9375 2.8125V3.375H14.4375V2.8125V2.25H12.9375V2.8125ZM5.8125 6.5625H5.25V10.6875H5.8125H6.375V6.5625H5.8125ZM9.1875 6.5625H8.625V10.6875H9.1875H9.75V6.5625H9.1875ZM7.50002 0.5625V1.125C8.63502 1.125 9.59014 1.90128 9.86076 2.95271L10.4055 2.8125L10.9502 2.67229C10.5548 1.13588 9.16077 0 7.50002 0V0.5625ZM4.59453 2.8125L5.13927 2.95271C5.40989 1.90128 6.36501 1.125 7.50002 1.125V0.5625V0C5.83926 0 4.44523 1.13588 4.04978 2.67229L4.59453 2.8125Z" fill="#4CA7F8"/>
</svg>
