<svg width="22" height="19" viewBox="0 0 22 19" fill="none" xmlns="http://www.w3.org/2000/svg">
<path d="M1.07471 17.6087L0.100741 17.5171L0.000167507 18.587H1.07471V17.6087ZM15.7486 17.6087V18.587H16.8232L16.7226 17.5171L15.7486 17.6087ZM18.1943 5.86958V4.89131H16.2378V5.86958H17.216H18.1943ZM16.2378 11.7391V12.7174H18.1943V11.7391H17.216H16.2378ZM14.2812 7.8261H13.303V9.78262H14.2812V8.80436V7.8261ZM20.1508 9.78262H21.1291V7.8261H20.1508V8.80436V9.78262ZM11.8356 4.40218H10.8573C10.8573 5.75288 9.76236 6.84784 8.41166 6.84784V7.8261V8.80436C10.8429 8.80436 12.8138 6.83344 12.8138 4.40218H11.8356ZM8.41166 7.8261V6.84784C7.06097 6.84784 5.96601 5.75288 5.96601 4.40218H4.98775H4.00949C4.00949 6.83344 5.98041 8.80436 8.41166 8.80436V7.8261ZM4.98775 4.40218H5.96601C5.96601 3.05149 7.06097 1.95653 8.41166 1.95653V0.978271V1.06096e-05C5.98041 1.06096e-05 4.00949 1.97093 4.00949 4.40218H4.98775ZM8.41166 0.978271V1.95653C9.76236 1.95653 10.8573 3.05149 10.8573 4.40218H11.8356H12.8138C12.8138 1.97093 10.8429 1.06096e-05 8.41166 1.06096e-05V0.978271ZM1.07471 17.6087L2.04867 17.7003C2.36722 14.3118 4.86779 11.7391 8.41166 11.7391V10.7609V9.78262C3.75731 9.78262 0.504038 13.2272 0.100741 17.5171L1.07471 17.6087ZM8.41166 10.7609V11.7391C11.9555 11.7391 14.4561 14.3118 14.7747 17.7003L15.7486 17.6087L16.7226 17.5171C16.3193 13.2272 13.066 9.78262 8.41166 9.78262V10.7609ZM1.07471 17.6087V18.587H15.7486V17.6087V16.6304H1.07471V17.6087ZM17.216 5.86958H16.2378V8.80436H17.216H18.1943V5.86958H17.216ZM17.216 8.80436H16.2378V11.7391H17.216H18.1943V8.80436H17.216ZM14.2812 8.80436V9.78262H17.216V8.80436V7.8261H14.2812V8.80436ZM17.216 8.80436V9.78262H20.1508V8.80436V7.8261H17.216V8.80436Z" fill="#4CA7F8"/>
</svg>
